<svg height="35px" width="35px" version="1.1" viewBox="0 0 700 700" xmlns="http://www.w3.org/2000/svg" xmlns:xlink="http://www.w3.org/1999/xlink"><path d="m610.86 509.47-130.98-130.87c32.812-40.031 50.805-90.125 50.805-141.86 0-123.54-100.52-224-224-224-30.188 0-59.5 5.9062-87.117 17.609-26.688 11.32-50.641 27.453-71.203 48.016s-36.75 44.516-48.07 71.203c-11.703 27.617-17.664 56.93-17.664 87.117 0 123.54 100.52 224 224 224 51.789 0 101.83-17.992 141.86-50.805l130.87 130.87c4.2109 4.2109 9.7891 6.5078 15.695 6.5078 5.9609 0 11.539-2.2969 15.695-6.5078 8.75-8.5859 8.75-22.641 0.10938-31.281zm-124.52-272.78c0 99.094-80.609 179.65-179.65 179.65-99.094 0-179.65-80.609-179.65-179.65s80.609-179.65 179.65-179.65 179.65 80.609 179.65 179.65z"/></svg>
